<svg width="19" height="19" viewBox="0 0 19 19" fill="none" xmlns="http://www.w3.org/2000/svg">
<path d="M18.9546 9.32422C18.9546 14.2948 14.9252 18.3242 9.95459 18.3242C4.98401 18.3242 0.95459 14.2948 0.95459 9.32422C0.95459 4.35364 4.98401 0.324219 9.95459 0.324219C14.9252 0.324219 18.9546 4.35364 18.9546 9.32422ZM8.91357 14.0896L15.591 7.41223C15.8177 7.18548 15.8177 6.81783 15.591 6.59109L14.7698 5.76994C14.5431 5.54317 14.1754 5.54317 13.9487 5.76994L8.50298 11.2156L5.96051 8.67313C5.73377 8.44639 5.36611 8.44639 5.13934 8.67313L4.31819 9.49428C4.09145 9.72102 4.09145 10.0887 4.31819 10.3154L8.09239 14.0896C8.31917 14.3164 8.68679 14.3164 8.91357 14.0896Z" fill="#06E49F"/>
</svg>
