<svg width="15" height="12" viewBox="0 0 15 12" fill="none" xmlns="http://www.w3.org/2000/svg">
<path d="M11.3813 10.6016H9.08447C8.89307 10.6016 8.75635 10.4648 8.75635 10.2734V9.17969C8.75635 9.01562 8.89307 8.85156 9.08447 8.85156H11.3813C11.8462 8.85156 12.2563 8.46875 12.2563 7.97656V2.72656C12.2563 2.26172 11.8462 1.85156 11.3813 1.85156H9.08447C8.89307 1.85156 8.75635 1.71484 8.75635 1.52344V0.429688C8.75635 0.265625 8.89307 0.101562 9.08447 0.101562H11.3813C12.8306 0.101562 14.0063 1.27734 14.0063 2.72656V7.97656C14.0063 9.42578 12.8306 10.6016 11.3813 10.6016ZM10.0962 5.10547C10.3423 5.37891 10.3423 5.78906 10.0962 6.03516L5.50244 10.6289C5.09229 11.0391 4.38135 10.7656 4.38135 10.1641V7.53906H0.662598C0.279785 7.53906 0.00634766 7.26562 0.00634766 6.88281V4.25781C0.00634766 3.90234 0.279785 3.60156 0.662598 3.60156H4.38135V0.976562C4.38135 0.402344 5.09229 0.101562 5.50244 0.511719L10.0962 5.10547Z" fill="black"/>
</svg>
