<svg width="21" height="16" viewBox="0 0 21 16" fill="none" xmlns="http://www.w3.org/2000/svg">
<path d="M10.9979 8.47631L4.17401 14.8493C3.70236 15.2898 2.93969 15.2898 2.47306 14.8493L1.33909 13.7903C0.867439 13.3498 0.867439 12.6375 1.33909 12.2017L6.17602 7.68437L1.33909 3.16704C0.867439 2.72655 0.867439 2.01427 1.33909 1.57847L2.46804 0.510053C2.93969 0.0695657 3.70236 0.0695657 4.16899 0.510053L10.9929 6.88306C11.4695 7.32355 11.4695 8.03583 10.9979 8.47631ZM20.6316 6.88306L13.8077 0.510053C13.3361 0.0695657 12.5734 0.0695657 12.1068 0.510053L10.9728 1.5691C10.5012 2.00958 10.5012 2.72186 10.9728 3.15766L15.8097 7.675L10.9728 12.1923C10.5012 12.6328 10.5012 13.3451 10.9728 13.7809L12.1068 14.8399C12.5784 15.2804 13.3411 15.2804 13.8077 14.8399L20.6316 8.46694C21.1033 8.03583 21.1033 7.32355 20.6316 6.88306Z" fill="#353535"/>
</svg>
