<svg width="32" height="32" viewBox="0 0 32 32" fill="none" xmlns="http://www.w3.org/2000/svg">
  <path d="M7.57288 4L28.9062 25.3333" stroke="#6B6B6B" stroke-width="2" stroke-linecap="round"/>
  <path
    d="M29.6906 17.6403C29.9278 16.7847 29.8196 15.8569 29.3661 15.0671C27.0819 11.0886 23.7995 8.13207 20 6.82178M26.1704 22.6666C23.2505 25.6373 19.5712 27.4085 15.573 27.4085C9.92507 27.4085 4.91333 23.8739 1.78 18.4165C1.1845 17.3793 1.1845 16.1044 1.77999 15.0672C3.91976 11.3402 6.93557 8.51004 10.4318 7.0899"
    stroke="#6B6B6B" stroke-width="2" stroke-linecap="round" stroke-linejoin="round"/>
  <path
    d="M19.4522 15.7668C19.664 16.6092 19.5957 17.4977 19.2578 18.2979C18.9199 19.0981 18.3306 19.7666 17.5792 20.2023C16.8277 20.638 15.9548 20.8172 15.0925 20.7129C14.2301 20.6085 13.4252 20.2263 12.7993 19.624C12.1734 19.0217 11.7606 18.232 11.6232 17.3743C11.4858 16.5166 11.6314 15.6375 12.0379 14.8699C12.4444 14.1022 13.0898 13.4878 13.8764 13.1194C14.6631 12.751 15.5483 12.6487 16.3982 12.8279"
    stroke="#6B6B6B" stroke-width="2"/>
</svg>
