<svg width="8" height="13" viewBox="0 0 8 13" fill="none" xmlns="http://www.w3.org/2000/svg">
<g id="Group 500">
<path id="Vector" d="M2.65056 3.38867C3.08122 3.38867 3.44947 3.77633 3.44947 4.22969V6.10416C3.76024 5.79742 4.35666 5.75976 4.74272 6.22241C5.15887 5.95419 5.70917 6.18211 5.87867 6.53122C6.77447 6.36276 7.17773 6.94321 7.17773 7.89412C7.17773 7.94567 7.17403 8.14335 7.17418 8.19449C7.17724 9.35785 6.60789 9.63799 6.47573 10.5173C6.44279 10.7364 6.25897 10.8978 6.04362 10.8978H2.91687L2.91685 10.8977C2.58205 10.8975 2.26262 10.6986 2.11759 10.3634C1.88072 9.8211 1.22367 8.57223 0.708057 8.34467C0.376378 8.1983 0.17788 7.94323 0.177734 7.59376C0.177479 6.95132 0.817542 6.5096 1.39741 6.76553C1.54979 6.83279 1.70129 6.92156 1.85165 7.03122V4.22969C1.85165 3.78947 2.22613 3.38867 2.65056 3.38867ZM2.6569 11.1981H6.1569C6.39853 11.1981 6.5944 11.3998 6.5944 11.6487V12.5498C6.5944 12.7986 6.39853 13.0003 6.1569 13.0003H2.6569C2.41527 13.0003 2.2194 12.7986 2.2194 12.5498V11.6487C2.2194 11.3998 2.41527 11.1981 2.6569 11.1981ZM5.7194 11.7238C5.51804 11.7238 5.35482 11.8918 5.35482 12.0992C5.35482 12.3066 5.51804 12.4747 5.7194 12.4747C5.92076 12.4747 6.08398 12.3066 6.08398 12.0992C6.08398 11.8918 5.92076 11.7238 5.7194 11.7238Z" fill="#00192F"/>
<path id="Vector 80" d="M2.66797 2.92233V1" stroke="black" stroke-width="0.5" stroke-linecap="round"/>
<path id="Vector 82" d="M3.67751 2.9226L4.61084 1.25781" stroke="black" stroke-width="0.5" stroke-linecap="round"/>
<path id="Vector 81" d="M1.65745 2.9226L0.724121 1.25781" stroke="black" stroke-width="0.5" stroke-linecap="round"/>
</g>
</svg>
