<svg width="13" height="13" viewBox="0 0 13 13" fill="none" xmlns="http://www.w3.org/2000/svg">
<path id="Vector" d="M12.6031 3.82884L11.5226 4.90935C11.4124 5.01952 11.2343 5.01952 11.1241 4.90935L8.52245 2.30769C8.41229 2.19753 8.41229 2.0194 8.52245 1.90924L9.60297 0.828724C10.0413 0.390425 10.7538 0.390425 11.1945 0.828724L12.6031 2.23737C13.0438 2.67567 13.0438 3.3882 12.6031 3.82884ZM7.59429 2.8374L1.43931 8.99233L0.942414 11.8401C0.874442 12.2245 1.20961 12.5573 1.59401 12.4917L4.44179 11.9924L10.5968 5.83752C10.7069 5.72736 10.7069 5.54922 10.5968 5.43906L7.99508 2.8374C7.88258 2.72724 7.70445 2.72724 7.59429 2.8374ZM3.84177 8.46496C3.71285 8.33605 3.71285 8.1298 3.84177 8.00088L7.45131 4.39137C7.58022 4.26245 7.78648 4.26245 7.91539 4.39137C8.04431 4.52028 8.04431 4.72653 7.91539 4.85545L4.30585 8.46496C4.17694 8.59388 3.97068 8.59388 3.84177 8.46496ZM2.99563 10.4361H4.12069V11.287L2.6089 11.5518L1.87996 10.8229L2.14481 9.31109H2.99563V10.4361Z" fill="black"/>
</svg>
