<svg width="21" height="21" viewBox="0 0 21 21" fill="none" xmlns="http://www.w3.org/2000/svg">
<path id="Vector" d="M19.7322 17.7913L15.8373 13.8971C15.6615 13.7214 15.4232 13.6237 15.1732 13.6237C14.9146 13.6237 14.7658 13.3229 14.9087 13.1073C15.7605 11.8225 16.2553 10.2822 16.2553 8.62421C16.2553 4.13636 12.6184 0.5 8.12974 0.5C3.64113 0.5 0.00415039 4.13636 0.00415039 8.62421C0.00415039 13.112 3.64113 16.7484 8.12974 16.7484C9.78805 16.7484 11.3287 16.2536 12.6137 15.4019C12.8293 15.2591 13.1301 15.4078 13.1301 15.6665C13.1301 15.9165 13.2278 16.1547 13.4036 16.3305L17.2984 20.2246C17.6656 20.5918 18.2594 20.5918 18.6227 20.2246L19.7282 19.1193C20.0955 18.7521 20.0955 18.1584 19.7322 17.7913ZM8.12974 13.6237C5.36782 13.6237 3.12938 11.3896 3.12938 8.62421C3.12938 5.86276 5.36392 3.62469 8.12974 3.62469C10.8917 3.62469 13.1301 5.85885 13.1301 8.62421C13.1301 11.3857 10.8956 13.6237 8.12974 13.6237Z" fill="#9E9E9E"/>
</svg>
