<svg width="14" height="15" viewBox="0 0 14 15" fill="none" xmlns="http://www.w3.org/2000/svg">
<path d="M0.875 13.5293V6.0918H13.125V13.5293C13.125 14.2676 12.5234 14.8418 11.8125 14.8418H2.1875C1.44922 14.8418 0.875 14.2676 0.875 13.5293ZM2.625 8.2793V10.9043C2.625 11.1504 2.81641 11.3418 3.0625 11.3418H5.6875C5.90625 11.3418 6.125 11.1504 6.125 10.9043V8.2793C6.125 8.06055 5.90625 7.8418 5.6875 7.8418H3.0625C2.81641 7.8418 2.625 8.06055 2.625 8.2793ZM11.8125 2.5918C12.5234 2.5918 13.125 3.19336 13.125 3.9043V5.2168H0.875V3.9043C0.875 3.19336 1.44922 2.5918 2.1875 2.5918H3.5V1.2793C3.5 1.06055 3.69141 0.841797 3.9375 0.841797H4.8125C5.03125 0.841797 5.25 1.06055 5.25 1.2793V2.5918H8.75V1.2793C8.75 1.06055 8.94141 0.841797 9.1875 0.841797H10.0625C10.2812 0.841797 10.5 1.06055 10.5 1.2793V2.5918H11.8125Z" fill="#00192F"/>
</svg>
